<svg width="1024" height="1024" viewBox="0 0 1024 1024" fill="none" xmlns="http://www.w3.org/2000/svg">
<path d="M752 664C723.5 664 697.2 674 676.6 690.7L469.4 540.8C472.869 521.757 472.869 502.243 469.4 483.2L676.6 333.3C697.2 350 723.5 360 752 360C818.2 360 872 306.2 872 240C872 173.8 818.2 120 752 120C685.8 120 632 173.8 632 240C632 251.6 633.6 262.7 636.7 273.3L439.9 415.8C410.7 377.1 364.3 352 312 352C223.6 352 152 423.6 152 512C152 600.4 223.6 672 312 672C364.3 672 410.7 646.9 439.9 608.2L636.7 750.7C633.6 761.3 632 772.5 632 784C632 850.2 685.8 904 752 904C818.2 904 872 850.2 872 784C872 717.8 818.2 664 752 664ZM752 188C780.7 188 804 211.3 804 240C804 268.7 780.7 292 752 292C723.3 292 700 268.7 700 240C700 211.3 723.3 188 752 188ZM312 600C263.5 600 224 560.5 224 512C224 463.5 263.5 424 312 424C360.5 424 400 463.5 400 512C400 560.5 360.5 600 312 600ZM752 836C723.3 836 700 812.7 700 784C700 755.3 723.3 732 752 732C780.7 732 804 755.3 804 784C804 812.7 780.7 836 752 836Z" fill="black"/>
</svg>
